<svg width="1280" height="640" viewBox="0 0 1280 640" fill="none" xmlns="http://www.w3.org/2000/svg">
  <defs>
    <linearGradient id="background" x1="96" y1="0" x2="1165" y2="640" gradientUnits="userSpaceOnUse">
      <stop stop-color="#0E211B"/>
      <stop offset="0.56" stop-color="#173A2F"/>
      <stop offset="1" stop-color="#1F694F"/>
    </linearGradient>
    <linearGradient id="glow" x1="640" y1="57" x2="640" y2="602" gradientUnits="userSpaceOnUse">
      <stop stop-color="#E9F7EF"/>
      <stop offset="1" stop-color="#F7F5EC"/>
    </linearGradient>
    <filter id="shadow" x="29" y="36" width="1222" height="598" filterUnits="userSpaceOnUse" color-interpolation-filters="sRGB">
      <feDropShadow dx="0" dy="24" stdDeviation="24" flood-color="#06110D" flood-opacity="0.38"/>
    </filter>
    <filter id="soft" x="-50%" y="-50%" width="200%" height="200%">
      <feGaussianBlur stdDeviation="52"/>
    </filter>
    <clipPath id="appClip"><rect x="70" y="68" width="1140" height="512" rx="20"/></clipPath>
  </defs>

  <rect width="1280" height="640" rx="28" fill="url(#background)"/>
  <circle cx="1110" cy="50" r="190" fill="#58B88F" fill-opacity="0.2" filter="url(#soft)"/>
  <circle cx="108" cy="610" r="170" fill="#9FD4B9" fill-opacity="0.12" filter="url(#soft)"/>
  <path d="M0 137C240 40 386 52 593 127C824 211 999 195 1280 58" stroke="#B8E9D3" stroke-opacity="0.08" stroke-width="2"/>

  <g filter="url(#shadow)" clip-path="url(#appClip)">
    <rect x="70" y="68" width="1140" height="512" rx="20" fill="#F4F4EF"/>

    <!-- Sidebar -->
    <rect x="70" y="68" width="206" height="512" fill="#14251F"/>
    <rect x="92" y="92" width="34" height="34" rx="10" fill="#2B7D60"/>
    <path d="M101 100.5C101 98.6 108.6 97 109 97C109.4 97 117 98.6 117 100.5V106.5C117 108.4 109.4 110 109 110C108.6 110 101 108.4 101 106.5V100.5Z" stroke="white" stroke-width="1.7"/>
    <path d="M101 100.5C101 102.4 108.6 104 109 104C109.4 104 117 102.4 117 100.5M101 106C101 107.9 108.6 109.5 109 109.5C109.4 109.5 117 107.9 117 106" stroke="white" stroke-width="1.7"/>
    <text x="138" y="116" fill="white" font-family="Inter, Segoe UI, sans-serif" font-size="20" font-weight="700">Drift</text>

    <text x="92" y="158" fill="#75887F" font-family="Inter, Segoe UI, sans-serif" font-size="9" font-weight="700" letter-spacing="1.3">STORAGE</text>
    <rect x="88" y="172" width="170" height="64" rx="12" fill="#1E332B" stroke="#365047"/>
    <rect x="101" y="186" width="36" height="36" rx="9" fill="#294A3E"/>
    <path d="M109 205.5C109 201.9 112 199 115.6 199C118.1 199 120.3 200.4 121.4 202.6C124.4 202.7 126.8 205.1 126.8 208.1C126.8 211.1 124.3 213.5 121.3 213.5H114C111.2 213.5 109 211.3 109 208.5" stroke="#82C9AA" stroke-width="1.7" stroke-linecap="round"/>
    <text x="147" y="199" fill="#F7FBF8" font-family="Inter, Segoe UI, sans-serif" font-size="11" font-weight="700">Creative Cloud</text>
    <text x="147" y="216" fill="#8DA197" font-family="Inter, Segoe UI, sans-serif" font-size="9">eu-central-1</text>

    <rect x="88" y="258" width="170" height="39" rx="9" fill="#234036"/>
    <rect x="88" y="258" width="3" height="39" rx="1.5" fill="#55AE87"/>
    <path d="M102 274H117V284H102V274ZM104 271H115V274H104V271Z" stroke="#E5F2EC" stroke-width="1.5"/>
    <text x="129" y="282" fill="white" font-family="Inter, Segoe UI, sans-serif" font-size="11" font-weight="600">All files</text>
    <path d="M103 321L109 315L115 321M109 316V329M102 329H116" stroke="#9EB0A8" stroke-width="1.5" stroke-linecap="round"/>
    <text x="129" y="325" fill="#A9BBB3" font-family="Inter, Segoe UI, sans-serif" font-size="11">Upload</text>
    <path d="M103 359H115V369H103V359ZM106 356H112V359" stroke="#9EB0A8" stroke-width="1.5"/>
    <text x="129" y="365" fill="#A9BBB3" font-family="Inter, Segoe UI, sans-serif" font-size="11">Upload folder</text>

    <line x1="90" y1="520" x2="256" y2="520" stroke="#30443C"/>
    <text x="92" y="540" fill="#6E8279" font-family="Inter, Segoe UI, sans-serif" font-size="8" font-weight="700" letter-spacing="1">S3 ENDPOINT</text>
    <text x="92" y="557" fill="#BCC9C3" font-family="Inter, Segoe UI, sans-serif" font-size="10" font-weight="600">s3.example.com</text>

    <!-- Main area -->
    <rect x="276" y="68" width="934" height="64" fill="#FFFEFA"/>
    <line x1="276" y1="132" x2="1210" y2="132" stroke="#E0E2DC"/>
    <path d="M302 98L309 94L316 98V106L309 110L302 106V98Z" stroke="#1E7357" stroke-width="1.7"/>
    <text x="330" y="105" fill="#8A918C" font-family="Inter, Segoe UI, sans-serif" font-size="10">Creative Cloud</text>
    <text x="414" y="105" fill="#B1B5B1" font-family="Inter, Segoe UI, sans-serif" font-size="14">›</text>
    <text x="432" y="105" fill="#2A342F" font-family="Inter, Segoe UI, sans-serif" font-size="10" font-weight="600">Design system</text>

    <rect x="846" y="82" width="92" height="36" rx="9" fill="#FFFFFF" stroke="#DDE0D9"/>
    <text x="892" y="104" text-anchor="middle" fill="#2F3934" font-family="Inter, Segoe UI, sans-serif" font-size="10" font-weight="600">Paste</text>
    <rect x="946" y="82" width="108" height="36" rx="9" fill="#FFFFFF" stroke="#DDE0D9"/>
    <text x="1000" y="104" text-anchor="middle" fill="#2F3934" font-family="Inter, Segoe UI, sans-serif" font-size="10" font-weight="600">New folder</text>
    <rect x="1062" y="82" width="126" height="36" rx="9" fill="#185D48"/>
    <path d="M1080 101L1086 95L1092 101M1086 96V108" stroke="white" stroke-width="1.5" stroke-linecap="round"/>
    <text x="1143" y="104" text-anchor="middle" fill="white" font-family="Inter, Segoe UI, sans-serif" font-size="10" font-weight="700">Upload</text>

    <text x="302" y="164" fill="#1D6C53" font-family="Inter, Segoe UI, sans-serif" font-size="8" font-weight="700" letter-spacing="1.2">OBJECTS</text>
    <text x="302" y="190" fill="#14221D" font-family="Inter, Segoe UI, sans-serif" font-size="25" font-weight="700">Design system</text>
    <text x="302" y="208" fill="#858C87" font-family="Inter, Segoe UI, sans-serif" font-size="9">6 objects in this folder</text>

    <!-- File table -->
    <rect x="302" y="226" width="560" height="330" rx="12" fill="#FFFEFA" stroke="#DFE2DA"/>
    <rect x="302" y="226" width="560" height="49" rx="12" fill="#FAFAF6"/>
    <rect x="317" y="235" width="214" height="31" rx="8" fill="white" stroke="#E1E3DC"/>
    <circle cx="331" cy="250" r="5" stroke="#9AA19C" stroke-width="1.5"/>
    <path d="M335 254L339 258" stroke="#9AA19C" stroke-width="1.5"/>
    <text x="348" y="254" fill="#9AA19C" font-family="Inter, Segoe UI, sans-serif" font-size="9">Search this page</text>
    <line x1="302" y1="275" x2="862" y2="275" stroke="#E5E7E1"/>
    <rect x="302" y="275" width="560" height="34" fill="#F5F6F1"/>
    <text x="321" y="296" fill="#8C938E" font-family="Inter, Segoe UI, sans-serif" font-size="7" font-weight="700" letter-spacing="0.8">NAME</text>
    <text x="688" y="296" fill="#8C938E" font-family="Inter, Segoe UI, sans-serif" font-size="7" font-weight="700" letter-spacing="0.8">SIZE</text>
    <text x="757" y="296" fill="#8C938E" font-family="Inter, Segoe UI, sans-serif" font-size="7" font-weight="700" letter-spacing="0.8">MODIFIED</text>

    <g font-family="Inter, Segoe UI, sans-serif">
      <line x1="302" y1="358" x2="862" y2="358" stroke="#ECEEE8"/>
      <rect x="318" y="319" width="29" height="29" rx="8" fill="#FBF2DD"/>
      <path d="M324 327H332L335 330H342V341H324V327Z" fill="#C49338"/>
      <text x="359" y="334" fill="#1E2924" font-size="10" font-weight="600">Brand assets</text>
      <text x="359" y="347" fill="#A0A6A2" font-size="7">FOLDER</text>
      <text x="698" y="338" fill="#7C847F" font-size="8">—</text>
      <text x="760" y="338" fill="#7C847F" font-size="8">Today</text>

      <line x1="302" y1="407" x2="862" y2="407" stroke="#ECEEE8"/>
      <rect x="318" y="368" width="29" height="29" rx="8" fill="#FBF2DD"/>
      <path d="M324 376H332L335 379H342V390H324V376Z" fill="#C49338"/>
      <text x="359" y="383" fill="#1E2924" font-size="10" font-weight="600">Components</text>
      <text x="359" y="396" fill="#A0A6A2" font-size="7">FOLDER</text>
      <text x="698" y="387" fill="#7C847F" font-size="8">—</text>
      <text x="760" y="387" fill="#7C847F" font-size="8">Yesterday</text>

      <rect x="303" y="407" width="558" height="49" fill="#F2F7F3"/>
      <rect x="303" y="407" width="2" height="49" fill="#208263"/>
      <rect x="318" y="417" width="29" height="29" rx="8" fill="#EDF0EC"/>
      <path d="M327 422H337L341 426V441H327V422Z" stroke="#73817A" stroke-width="1.4"/>
      <path d="M337 422V427H341" stroke="#73817A" stroke-width="1.4"/>
      <text x="359" y="432" fill="#1E2924" font-size="10" font-weight="600">guidelines.pdf</text>
      <text x="359" y="445" fill="#A0A6A2" font-size="7">PDF</text>
      <text x="685" y="436" fill="#66716B" font-size="8">2.4 MB</text>
      <text x="760" y="436" fill="#66716B" font-size="8">12 Jul 2026</text>

      <line x1="302" y1="505" x2="862" y2="505" stroke="#ECEEE8"/>
      <rect x="318" y="466" width="29" height="29" rx="8" fill="#EDF0EC"/>
      <path d="M327 471H337L341 475V490H327V471Z" stroke="#73817A" stroke-width="1.4"/>
      <path d="M337 471V476H341" stroke="#73817A" stroke-width="1.4"/>
      <text x="359" y="481" fill="#1E2924" font-size="10" font-weight="600">tokens.json</text>
      <text x="359" y="494" fill="#A0A6A2" font-size="7">JSON</text>
      <text x="688" y="485" fill="#66716B" font-size="8">8 KB</text>
      <text x="760" y="485" fill="#66716B" font-size="8">11 Jul 2026</text>
    </g>

    <!-- Preview -->
    <rect x="880" y="146" width="308" height="410" rx="14" fill="#FFFEFA" stroke="#DFE2DA"/>
    <rect x="880" y="146" width="308" height="56" rx="14" fill="#FFFEFA"/>
    <line x1="880" y1="202" x2="1188" y2="202" stroke="#E1E3DC"/>
    <rect x="896" y="157" width="34" height="34" rx="9" fill="#DFF2E7"/>
    <path d="M906 164H916L921 169V184H906V164Z" stroke="#1D7055" stroke-width="1.5"/>
    <path d="M916 164V170H921" stroke="#1D7055" stroke-width="1.5"/>
    <text x="941" y="171" fill="#203029" font-family="Inter, Segoe UI, sans-serif" font-size="10" font-weight="700">guidelines.pdf</text>
    <text x="941" y="184" fill="#9BA19D" font-family="Inter, Segoe UI, sans-serif" font-size="7">PREVIEW</text>
    <rect x="1139" y="158" width="34" height="32" rx="8" fill="white" stroke="#E0E2DC"/>
    <path d="M1149 168L1156 175M1156 168L1149 175" stroke="#657069" stroke-width="1.5"/>

    <rect x="896" y="216" width="276" height="255" rx="10" fill="#343A37"/>
    <rect x="896" y="216" width="276" height="34" rx="10" fill="#202623"/>
    <circle cx="914" cy="233" r="5" stroke="#9DB0A7"/>
    <text x="927" y="236" fill="#C8D4CE" font-family="Inter, Segoe UI, sans-serif" font-size="7">1 / 12</text>
    <text x="1148" y="236" text-anchor="end" fill="#C8D4CE" font-family="Inter, Segoe UI, sans-serif" font-size="7">100%</text>
    <rect x="950" y="262" width="168" height="194" rx="2" fill="white"/>
    <rect x="970" y="284" width="89" height="8" rx="4" fill="#1E6E54"/>
    <rect x="970" y="306" width="126" height="4" rx="2" fill="#DDE4DF"/>
    <rect x="970" y="316" width="113" height="4" rx="2" fill="#DDE4DF"/>
    <rect x="970" y="326" width="120" height="4" rx="2" fill="#DDE4DF"/>
    <rect x="970" y="350" width="52" height="52" rx="8" fill="#E5F2EA"/>
    <path d="M984 386L993 371L1000 380L1005 374L1015 386H984Z" fill="#4F9C79"/>
    <rect x="1033" y="350" width="63" height="5" rx="2.5" fill="#CBD6D0"/>
    <rect x="1033" y="362" width="57" height="4" rx="2" fill="#DFE5E1"/>
    <rect x="1033" y="372" width="62" height="4" rx="2" fill="#DFE5E1"/>
    <rect x="1033" y="382" width="49" height="4" rx="2" fill="#DFE5E1"/>
    <rect x="970" y="420" width="126" height="4" rx="2" fill="#DDE4DF"/>
    <rect x="970" y="430" width="104" height="4" rx="2" fill="#DDE4DF"/>

    <text x="896" y="495" fill="#999F9B" font-family="Inter, Segoe UI, sans-serif" font-size="7">SIZE</text>
    <text x="950" y="495" fill="#56615B" font-family="Inter, Segoe UI, sans-serif" font-size="8" font-weight="600">2.4 MB</text>
    <text x="896" y="512" fill="#999F9B" font-family="Inter, Segoe UI, sans-serif" font-size="7">TYPE</text>
    <text x="950" y="512" fill="#56615B" font-family="Inter, Segoe UI, sans-serif" font-size="8" font-weight="600">application/pdf</text>
    <rect x="896" y="526" width="276" height="28" rx="8" fill="#185D48"/>
    <text x="1034" y="544" text-anchor="middle" fill="white" font-family="Inter, Segoe UI, sans-serif" font-size="9" font-weight="700">Download file</text>
  </g>

  <rect x="70.5" y="68.5" width="1139" height="511" rx="19.5" stroke="white" stroke-opacity="0.15"/>
  <text x="640" y="614" text-anchor="middle" fill="#CFE5DA" font-family="Inter, Segoe UI, sans-serif" font-size="10" letter-spacing="1.4">CALM CONTROL OVER EVERY OBJECT</text>
</svg>
